# xmcd CD database file
#
# Track frame offsets:
#	150
#	21082
#	39480
#	66975
#	85872
#	105337
#	128312
#	148662
#	173962
#	196475
#
# Disc length: 2964 seconds
#
# Revision: 0
# Processed by: cddbd v1.5.1PL0 Copyright (c) Steve Scherf et al.
# Submitted via: CDex 1.51
#
DISCID=7f0b920a
DTITLE=パール兄弟 - 大ピース
DYEAR=1992
DGENRE=JPop
TTITLE0=君にマニョマニョ
TTITLE1=ホログラフ
TTITLE2=秒速ラヴ
TTITLE3=POMPだ!
TTITLE4=恋は(ローラー)2
TTITLE5=キャンディへ
TTITLE6=親指トム
TTITLE7=ラティン・マン
TTITLE8=AV
TTITLE9=太陽ソース
EXTD=YEAR: 1992
EXTT0=
EXTT1=
EXTT2=
EXTT3=
EXTT4=
EXTT5=
EXTT6=
EXTT7=
EXTT8=
EXTT9=
PLAYORDER=
